<?xml version="1.0" encoding="UTF-8" standalone="no"?>
<!DOCTYPE svg PUBLIC "-//W3C//DTD SVG 1.1//EN" "http://www.w3.org/Graphics/SVG/1.1/DTD/svg11.dtd">
<svg width="100%" height="100%" viewBox="0 0 25 25" version="1.1" xmlns="http://www.w3.org/2000/svg" xmlns:xlink="http://www.w3.org/1999/xlink" xml:space="preserve" xmlns:serif="http://www.serif.com/" style="fill-rule:evenodd;clip-rule:evenodd;stroke-linejoin:round;stroke-miterlimit:2;">
    <g transform="matrix(1,0,0,1,-18771.3,-1586.35)">
        <g transform="matrix(0.047573,0,0,0.047573,18783.5,1598.53)">
            <g transform="matrix(1,0,0,1,-256,-256)">
                <g transform="matrix(32,0,0,32,0,0)">
                    <path d="M4.475,5.458C4.191,5.458 3.961,5.221 4.005,4.941C4.28,3.24 5.576,2 7.825,2C10.075,2 11.592,3.36 11.592,5.215C11.592,6.559 10.927,7.503 9.802,8.188C8.702,8.847 8.388,9.306 8.388,10.198L8.388,10.228C8.388,10.502 8.162,10.728 7.888,10.728L7.118,10.728C6.846,10.728 6.621,10.505 6.618,10.233L6.615,10.033C6.572,8.812 7.092,8.032 8.26,7.321C9.29,6.689 9.657,6.186 9.657,5.293C9.657,4.314 8.899,3.595 7.731,3.595C6.722,3.595 6.021,4.124 5.793,4.997C5.727,5.251 5.515,5.458 5.253,5.458L4.475,5.458ZM7.496,14C8.118,14 8.591,13.526 8.591,12.91C8.591,12.292 8.118,11.818 7.496,11.818C6.89,11.818 6.409,12.292 6.409,12.909C6.409,13.526 6.89,14 7.496,14Z" style="fill:rgb(194,213,170);"/>
                </g>
            </g>
        </g>
    </g>
</svg>
